<?xml version="1.0" encoding="UTF-8" standalone="no"?>
<!-- Generator: Adobe Illustrator 18.0.0, SVG Export Plug-In . SVG Version: 6.00 Build 0)  -->

<svg
   xmlns:dc="http://purl.org/dc/elements/1.1/"
   xmlns:cc="http://creativecommons.org/ns#"
   xmlns:rdf="http://www.w3.org/1999/02/22-rdf-syntax-ns#"
   xmlns:svg="http://www.w3.org/2000/svg"
   xmlns="http://www.w3.org/2000/svg"
   xmlns:xlink="http://www.w3.org/1999/xlink"
   xmlns:sodipodi="http://sodipodi.sourceforge.net/DTD/sodipodi-0.dtd"
   xmlns:inkscape="http://www.inkscape.org/namespaces/inkscape"
   version="1.1"
   id="Capa_1"
   x="0px"
   y="0px"
   viewBox="0 0 60 60"
   style="enable-background:new 0 0 60 60;"
   xml:space="preserve"
   sodipodi:docname="chat.svg"
   inkscape:export-filename="D:\Downloads\chat.png"
   inkscape:export-xdpi="96"
   inkscape:export-ydpi="96"
   inkscape:version="0.92.1 r15371"><metadata
     id="metadata3717"><rdf:RDF><cc:Work
         rdf:about=""><dc:format>image/svg+xml</dc:format><dc:type
           rdf:resource="http://purl.org/dc/dcmitype/StillImage" /></cc:Work></rdf:RDF></metadata><defs
     id="defs3715"><linearGradient
       inkscape:collect="always"
       id="linearGradient4828"><stop
         style="stop-color:#00e9ff;stop-opacity:1"
         offset="0"
         id="stop4824" /><stop
         style="stop-color:#6f49ce;stop-opacity:1"
         offset="1"
         id="stop4826" /></linearGradient><linearGradient
       inkscape:collect="always"
       xlink:href="#linearGradient4828"
       id="linearGradient4830"
       x1="30.340034"
       y1="-11.084091"
       x2="30.340034"
       y2="76.793785"
       gradientUnits="userSpaceOnUse" /></defs><sodipodi:namedview
     pagecolor="#ffffff"
     bordercolor="#666666"
     borderopacity="1"
     objecttolerance="10"
     gridtolerance="10"
     guidetolerance="10"
     inkscape:pageopacity="0"
     inkscape:pageshadow="2"
     inkscape:window-width="1920"
     inkscape:window-height="1017"
     id="namedview3713"
     showgrid="false"
     inkscape:zoom="8"
     inkscape:cx="19.701529"
     inkscape:cy="24.357761"
     inkscape:window-x="1912"
     inkscape:window-y="-8"
     inkscape:window-maximized="1"
     inkscape:current-layer="layer1" /><g
     inkscape:groupmode="layer"
     id="layer1"
     inkscape:label="back"><path
       sodipodi:type="star"
       style="fill:url(#linearGradient4830);fill-opacity:1;stroke-width:0;stroke-miterlimit:4;stroke-dasharray:none"
       id="path4009"
       sodipodi:sides="6"
       sodipodi:cx="30.340036"
       sodipodi:cy="32.908745"
       sodipodi:r1="43.992836"
       sodipodi:r2="38.098915"
       sodipodi:arg1="1.5707963"
       sodipodi:arg2="2.0943951"
       inkscape:flatsided="true"
       inkscape:rounded="0.11"
       inkscape:randomized="0"
       d="m 30.340038,76.901581 c -4.839212,0 -35.6793085,-17.805537 -38.0989146,-21.996417 -2.4196064,-4.190881 -2.4196074,-39.801956 -1.2e-6,-43.992836 2.4196059,-4.1908807 33.2597008,-21.996419 38.0989128,-21.996419 4.839212,0 35.679308,17.8055364 38.098914,21.996417 2.419606,4.19088 2.419607,39.801955 2e-6,43.992836 -2.419606,4.19088 -33.259701,21.996419 -38.098913,21.996419 z"
       inkscape:export-xdpi="96"
       inkscape:export-ydpi="96" /></g><g
     id="g3682" /><g
     id="g3684" /><g
     id="g3686" /><g
     id="g3688" /><g
     id="g3690" /><g
     id="g3692" /><g
     id="g3694" /><g
     id="g3696" /><g
     id="g3698" /><g
     id="g3700" /><g
     id="g3702" /><g
     id="g3704" /><g
     id="g3706" /><g
     id="g3708" /><g
     id="g3710" /><g
     transform="translate(-304.81544,-253.56838)"
     id="g3723" /><g
     transform="translate(-304.81544,-253.56838)"
     id="g3725" /><g
     transform="translate(-304.81544,-253.56838)"
     id="g3727" /><g
     transform="translate(-304.81544,-253.56838)"
     id="g3729" /><g
     transform="translate(-304.81544,-253.56838)"
     id="g3731" /><g
     transform="translate(-304.81544,-253.56838)"
     id="g3733" /><g
     transform="translate(-304.81544,-253.56838)"
     id="g3735" /><g
     transform="translate(-304.81544,-253.56838)"
     id="g3737" /><g
     transform="translate(-304.81544,-253.56838)"
     id="g3739" /><g
     transform="translate(-304.81544,-253.56838)"
     id="g3741" /><g
     transform="translate(-304.81544,-253.56838)"
     id="g3743" /><g
     transform="translate(-304.81544,-253.56838)"
     id="g3745" /><g
     transform="translate(-304.81544,-253.56838)"
     id="g3747" /><g
     transform="translate(-304.81544,-253.56838)"
     id="g3749" /><g
     transform="translate(-304.81544,-253.56838)"
     id="g3751" /><g
     id="g3984"
     transform="matrix(0.99166682,0,0,1,0.47415674,1.9256506)"
     style="fill:#ffffff"
     inkscape:export-xdpi="96"
     inkscape:export-ydpi="96"><path
       id="path3929"
       d="m 57.987316,39.538953 c 3.418813,-3.966956 5.2213,-8.553663 5.2213,-13.29053 0,-13.548988 -14.737471,-24.5716463 -32.852143,-24.5716463 -18.114672,0 -32.8521436,11.0226583 -32.8521436,24.5716463 0,13.548988 14.7374716,24.571646 32.8521436,24.571646 4.667194,0 9.174508,-0.718948 13.408054,-2.136824 7.451962,3.57381 17.753299,4.806942 18.197898,4.857906 0.05037,0.0064 0.101842,0.0091 0.152215,0.0091 0.410652,0 0.793927,-0.192023 0.980089,-0.504174 0.210253,-0.350373 0.127028,-0.772641 -0.205874,-1.0493 C 60.369096,49.903636 58.634503,45.48711 57.987316,39.538953 Z M 44.41719,46.890425 v 0 c -2.310601,-1.184899 -4.891684,-2.560912 -5.493973,-2.956788 -0.324142,-0.393146 -0.963663,-0.512364 -1.464111,-0.263918 -0.327426,0.162902 -0.53549,0.465951 -0.538775,0.783563 -0.0033,0.536025 0.0066,0.700747 4.468986,3.017762 -3.515179,1.010168 -7.21433,1.528903 -11.032844,1.528903 -16.906809,0 -30.6620007,-10.206334 -30.6620007,-22.751524 0,-12.545191 13.7551917,-22.7515244 30.6620007,-22.7515244 16.906808,0 30.662,10.2063334 30.662,22.7515244 0,4.456569 -1.742258,8.775717 -5.038423,12.489676 -0.157691,0.177462 -0.232156,0.396786 -0.209159,0.616112 0.383275,3.798594 1.355698,8.636478 3.767046,11.976401 C 55.886968,50.713591 49.306684,49.343949 44.41719,46.890425 Z"
       inkscape:connector-curvature="0"
       style="fill:#ffffff;stroke-width:0.99828941" /><g
       id="g3931"
       style="fill:#ffffff" /><g
       id="g3933"
       style="fill:#ffffff" /><g
       id="g3935"
       style="fill:#ffffff" /><g
       id="g3937"
       style="fill:#ffffff" /><g
       id="g3939"
       style="fill:#ffffff" /><g
       id="g3941"
       style="fill:#ffffff" /><g
       id="g3943"
       style="fill:#ffffff" /><g
       id="g3945"
       style="fill:#ffffff" /><g
       id="g3947"
       style="fill:#ffffff" /><g
       id="g3949"
       style="fill:#ffffff" /><g
       id="g3951"
       style="fill:#ffffff" /><g
       id="g3953"
       style="fill:#ffffff" /><g
       id="g3955"
       style="fill:#ffffff" /><g
       id="g3957"
       style="fill:#ffffff" /><g
       id="g3959"
       style="fill:#ffffff" /></g><g
     transform="matrix(0.09545798,0,0,0.1078585,5.5637632,-3.1393636)"
     id="g3721"
     style="fill:#ffffff"
     inkscape:export-xdpi="96"
     inkscape:export-ydpi="96"><path
       inkscape:connector-curvature="0"
       d="M 506.346,289.875 H 440.577 V 262.339 H 261.912 v -36.883 h 65.784 c 4.936,0 8.969,-4.022 8.969,-8.978 v -86.581 c 0,-4.949 -4.021,-8.977 -8.969,-8.977 H 184.937 c -4.947,0 -8.977,4.022 -8.977,8.977 v 86.581 c 0,4.95 4.025,8.978 8.977,8.978 h 65.772 v 36.883 H 68.594 v 27.536 H 8.978 C 4.027,289.875 0,293.901 0,298.849 v 86.577 c 0,4.953 4.022,8.979 8.978,8.979 h 142.755 c 4.947,0 8.974,-4.021 8.974,-8.979 v -86.577 c 0,-4.947 -4.021,-8.974 -8.974,-8.974 H 79.802 v -16.33 h 170.907 v 16.33 h -65.772 c -4.947,0 -8.977,4.026 -8.977,8.974 v 86.577 c 0,4.953 4.025,8.979 8.977,8.979 h 142.759 c 4.948,0 8.974,-4.021 8.974,-8.979 v -86.577 c 0,-4.947 -4.025,-8.974 -8.974,-8.974 h -65.784 v -16.33 h 167.459 v 16.33 h -65.778 c -4.945,0 -8.975,4.026 -8.975,8.974 v 86.577 c 0,4.953 4.021,8.979 8.975,8.979 h 142.753 c 4.954,0 8.979,-4.021 8.979,-8.979 v -86.577 c -0.005,-4.948 -4.025,-8.974 -8.979,-8.974 z M 185.252,216.164 v -85.949 h 142.116 v 85.949 z m -33.839,83.002 v 85.942 H 9.295 v -85.942 z m 175.955,0 v 85.942 H 185.252 v -85.942 z m 178.66,0 v 85.942 H 363.91 v -85.942 z"
       id="path3719"
       style="fill:#ffffff" /></g></svg>