<?xml version="1.0" encoding="UTF-8"?>
<!-- Generator: Adobe Illustrator 15.0.2, SVG Export Plug-In . SVG Version: 6.00 Build 0)  -->
<!DOCTYPE svg PUBLIC "-//W3C//DTD SVG 1.1//EN" "http://www.w3.org/Graphics/SVG/1.1/DTD/svg11.dtd">
<svg version="1.1" id="Layer_1" xmlns="http://www.w3.org/2000/svg" xmlns:xlink="http://www.w3.org/1999/xlink" x="0px" y="0px" width="512px" height="512px" viewBox="0 0 512 512" enable-background="new 0 0 512 512" xml:space="preserve">
<path d="M56.889,341.333H0v113.778C0,486.542,25.458,512,56.889,512h113.778v-56.889H56.889V341.333z M56.889,56.889h113.778V0  H56.889C25.458,0,0,25.458,0,56.889v113.778h56.889V56.889z M455.111,0H341.333v56.889h113.778v113.778H512V56.889  C512,25.458,486.542,0,455.111,0z M455.111,455.111H341.333V512h113.778C486.542,512,512,486.542,512,455.111V341.333h-56.889  V455.111z M256,170.667c-47.076,0-85.333,38.257-85.333,85.333c0,47.083,38.257,85.333,85.333,85.333  c47.083,0,85.333-38.25,85.333-85.333C341.333,208.924,303.083,170.667,256,170.667z"/>
</svg>